<?xml version="1.0" encoding="utf-8"?>
<!-- Generator: Adobe Illustrator 23.0.4, SVG Export Plug-In . SVG Version: 6.00 Build 0)  -->
<svg version="1.1" id="Layer_1" xmlns="http://www.w3.org/2000/svg" xmlns:xlink="http://www.w3.org/1999/xlink" x="0px" y="0px"
	 viewBox="0 0 229.98 60" style="enable-background:new 0 0 229.98 60;" xml:space="preserve">
<style type="text/css">
	.st0{fill:#FFFFFF;}
</style>
<g>
	<path class="st0" d="M6.76,35.72l-1.03,4.46H0.62l6.26-20.75h5.95l6.26,20.75h-5.19l-1.1-4.46H6.76z M9.77,22.98l-2.18,9.15h4.38
		L9.77,22.98z"/>
	<path class="st0" d="M29.47,34.38v5.83h-3.58V24.99h5.01c4.13,0,6.26,1.49,6.26,4.65c0,1.98-0.95,3.21-2.94,4.13l3.86,6.49h-4.04
		l-3.13-5.83h-1.4v-0.05H29.47z M30.99,31.88c1.57,0,2.4-0.69,2.4-2.28c0-1.49-0.85-2.1-2.64-2.1h-1.3v4.38H30.99z"/>
	<path class="st0" d="M50.86,34.38v5.83h-3.58V24.99h5.01c4.13,0,6.26,1.49,6.26,4.65c0,1.98-0.95,3.21-2.94,4.13l3.86,6.49h-4.08
		l-3.13-5.83h-1.37v-0.05H50.86z M52.35,31.88c1.57,0,2.4-0.69,2.4-2.28c0-1.49-0.85-2.1-2.64-2.1h-1.3v4.38H52.35z"/>
	<path class="st0" d="M81.01,32.55c0,5.01-2.55,8.02-6.87,8.02c-4.28,0-6.87-2.94-6.87-8.02c0-4.95,2.55-7.98,6.87-7.98
		C78.46,24.57,81.01,27.48,81.01,32.55z M71.05,32.55c0,3.86,1.1,5.38,3.09,5.38c2.06,0,3.09-1.49,3.09-5.38
		c0-3.86-1.07-5.34-3.09-5.34C72.12,27.21,71.05,28.75,71.05,32.55z"/>
	<path class="st0" d="M100.51,40.18L98.6,28.55l-1.98,11.63h-4.58l-2.52-15.22h3.58l1.52,12.51l2.1-12.51h3.77l1.98,12.51
		l1.79-12.51h3.43l-2.55,15.22C105.14,40.18,100.51,40.18,100.51,40.18z"/>
	<path class="st0" d="M127.48,26.53l-1.67,1.94c-1.03-0.85-2.1-1.25-3.31-1.25c-1.25,0-2.06,0.54-2.06,1.49s0.57,1.37,2.94,2.1
		c2.86,0.91,4.53,2.1,4.53,4.92s-2.25,4.8-6.02,4.8c-2.64,0-4.53-0.95-5.8-2.18l1.83-2.03c1.07,0.95,2.28,1.52,3.82,1.52
		c1.49,0,2.4-0.69,2.4-1.88c0-1.1-0.57-1.64-2.79-2.28c-3.4-1.07-4.65-2.49-4.65-4.73c0-2.67,2.33-4.38,5.5-4.38
		C124.54,24.59,126.14,25.27,127.48,26.53z"/>
	<path class="st0" d="M142.97,27.75v12.48h-3.58V27.75h-3.92v-2.79h11.6l-0.34,2.79C146.72,27.75,142.97,27.75,142.97,27.75z"/>
	<path class="st0" d="M159.52,34.38v5.83h-3.58V24.99h5.01c4.13,0,6.26,1.49,6.26,4.65c0,1.98-0.95,3.21-2.94,4.13l3.86,6.49h-4.08
		l-3.13-5.83h-1.37v-0.05H159.52z M161.05,31.88c1.57,0,2.4-0.69,2.4-2.28c0-1.49-0.85-2.1-2.64-2.1h-1.3v4.38H161.05z"/>
	<path class="st0" d="M180.9,27.51v3.67h4.68v2.52h-4.7v3.89h5.72v2.59h-9.35V24.96h9.35l-0.39,2.55
		C186.22,27.51,180.9,27.51,180.9,27.51z"/>
	<path class="st0" d="M200.28,27.51v3.67h4.7v2.52h-4.7v3.89h5.72v2.59h-9.35V24.96h9.35l-0.39,2.55
		C205.62,27.51,200.28,27.51,200.28,27.51z"/>
	<path class="st0" d="M220.72,27.75v12.48h-3.58V27.75h-3.92v-2.79h11.63l-0.34,2.79C224.51,27.75,220.72,27.75,220.72,27.75z"/>
</g>
</svg>
