<?xml version="1.0" encoding="utf-8"?>
<!-- Generator: Adobe Illustrator 23.0.4, SVG Export Plug-In . SVG Version: 6.00 Build 0)  -->
<svg version="1.1" id="Layer_1" xmlns="http://www.w3.org/2000/svg" xmlns:xlink="http://www.w3.org/1999/xlink" x="0px" y="0px"
	 viewBox="0 0 230 60" style="enable-background:new 0 0 230 60;" xml:space="preserve">
<style type="text/css">
	.st0{fill:#757779;}
</style>
<g>
	<path class="st0" d="M6.8,35.7l-1,4.5H0.6l6.3-20.8h5.9l6.3,20.8h-5.2l-1.1-4.5H6.8z M9.8,23l-2.2,9.1H12L9.8,23z"/>
	<path class="st0" d="M29.5,34.4v5.8h-3.6V25h5c4.1,0,6.3,1.5,6.3,4.6c0,2-1,3.2-2.9,4.1l3.9,6.5h-4l-3.1-5.8L29.5,34.4L29.5,34.4
		L29.5,34.4z M31,31.9c1.6,0,2.4-0.7,2.4-2.3c0-1.5-0.8-2.1-2.6-2.1h-1.3v4.4C29.5,31.9,31,31.9,31,31.9z"/>
	<path class="st0" d="M50.9,34.4v5.8h-3.6V25h5c4.1,0,6.3,1.5,6.3,4.6c0,2-1,3.2-2.9,4.1l3.9,6.5h-4.1l-3.1-5.8L50.9,34.4L50.9,34.4
		L50.9,34.4z M52.3,31.9c1.6,0,2.4-0.7,2.4-2.3c0-1.5-0.8-2.1-2.6-2.1h-1.3v4.4C50.8,31.9,52.3,31.9,52.3,31.9z"/>
	<path class="st0" d="M81,32.5c0,5-2.6,8-6.9,8c-4.3,0-6.9-2.9-6.9-8c0-5,2.6-8,6.9-8S81,27.5,81,32.5z M71.1,32.5
		c0,3.9,1.1,5.4,3.1,5.4c2.1,0,3.1-1.5,3.1-5.4c0-3.9-1.1-5.3-3.1-5.3S71.1,28.8,71.1,32.5z"/>
	<path class="st0" d="M100.5,40.2l-1.9-11.6l-2,11.6H92L89.5,25h3.6l1.5,12.5L96.7,25h3.8l2,12.5l1.8-12.5h3.4l-2.6,15.2
		C105.1,40.2,100.5,40.2,100.5,40.2z"/>
	<path class="st0" d="M127.5,26.5l-1.7,1.9c-1-0.9-2.1-1.2-3.3-1.2c-1.2,0-2.1,0.5-2.1,1.5s0.6,1.4,2.9,2.1c2.9,0.9,4.5,2.1,4.5,4.9
		s-2.2,4.8-6,4.8c-2.6,0-4.5-1-5.8-2.2l1.8-2c1.1,1,2.3,1.5,3.8,1.5c1.5,0,2.4-0.7,2.4-1.9c0-1.1-0.6-1.6-2.8-2.3
		c-3.4-1.1-4.7-2.5-4.7-4.7c0-2.7,2.3-4.4,5.5-4.4C124.5,24.6,126.1,25.3,127.5,26.5z"/>
	<path class="st0" d="M143,27.8v12.5h-3.6V27.8h-3.9V25h11.6l-0.3,2.8C146.7,27.8,143,27.8,143,27.8z"/>
	<path class="st0" d="M159.5,34.4v5.8h-3.6V25h5c4.1,0,6.3,1.5,6.3,4.6c0,2-0.9,3.2-2.9,4.1l3.9,6.5H164l-3.1-5.8L159.5,34.4
		L159.5,34.4L159.5,34.4z M161.1,31.9c1.6,0,2.4-0.7,2.4-2.3c0-1.5-0.9-2.1-2.6-2.1h-1.3v4.4C159.5,31.9,161.1,31.9,161.1,31.9z"/>
	<path class="st0" d="M180.9,27.5v3.7h4.7v2.5h-4.7v3.9h5.7v2.6h-9.4V25h9.4l-0.4,2.5C186.2,27.5,180.9,27.5,180.9,27.5z"/>
	<path class="st0" d="M200.3,27.5v3.7h4.7v2.5h-4.7v3.9h5.7v2.6h-9.4V25h9.4l-0.4,2.5C205.6,27.5,200.3,27.5,200.3,27.5z"/>
	<path class="st0" d="M220.7,27.8v12.5h-3.6V27.8h-3.9V25h11.6l-0.3,2.8C224.5,27.8,220.7,27.8,220.7,27.8z"/>
</g>
</svg>
