<?xml version="1.0" encoding="utf-8"?>
<!-- Generator: Adobe Illustrator 23.0.4, SVG Export Plug-In . SVG Version: 6.00 Build 0)  -->
<svg version="1.1" id="Massport_Logo" xmlns="http://www.w3.org/2000/svg" xmlns:xlink="http://www.w3.org/1999/xlink" x="0px"
	 y="0px" viewBox="0 0 100.5 50" style="enable-background:new 0 0 100.5 50;" xml:space="preserve">
<style type="text/css">
	.st0{fill:#FFFFFF;}
</style>
<title>Logos</title>
<g id="Massport">
	<path class="st0" d="M96,0H4.4C1.9,0,0,1.9,0,4.2l0,0v41.4C0,48.1,1.9,50,4.4,50h50.1l3.3-20.3h4.4l-0.1,0.9
		c0.8-0.8,1.8-1.3,2.9-1.3c1.4,0,2.7,1.2,2.7,2.6V32c0,0.5,0,1.2-0.1,1.7l-1.3,8.2c-0.3,1.7-1.3,3.7-3.7,3.7c-1.2,0-2.2-0.6-2.7-1.5
		l-1,5.9h37.3c2.4,0,4.4-1.9,4.4-4.2l0,0V4.2C100.4,1.9,98.5,0,96,0L96,0 M57.8,17.7H9.2l-0.9-2.1h47.6L57.8,17.7z M30.1,20h6
		l1.4,2.1h-6L30.1,20z M30.6,22.1h-6L23.2,20h6L30.6,22.1z M55.5,15H8.1l-0.9-2.1h46.4L55.5,15z M8.5,4.6l6.9,7.7h-4.2L6.3,4.6H8.5z
		 M3.6,4.6h2.2l4.9,7.8H6.9L3.6,4.6z M16.9,45.5l1.8-10.6c0-0.3,0-0.5,0-0.8c0-0.4-0.3-0.6-0.6-0.6c-0.8,0.1-1.3,0.9-1.3,1.7
		L15,45.5h-4.2L12.6,35c0-0.3,0-0.5,0-0.8c0-0.4-0.3-0.6-0.6-0.6c-0.8,0.3-1.3,0.9-1.3,1.7L9,45.6H4.6L7.3,30h4.2v1.2
		c0.8-0.9,1.9-1.3,3.1-1.3c1.2-0.1,2.2,0.6,2.6,1.8c0.9-1,2.2-1.7,3.5-1.8c1.4-0.1,2.7,0.9,2.7,2.3c0,0.1,0,0.1,0,0.3
		c0,0.6-0.1,1.4-0.3,2.1l-1.9,11.3L16.9,45.5L16.9,45.5z M9,25.3h47l-1.5,2.1H11.3C10.1,27.3,9.1,26.4,9,25.3z M28.3,45.4l0.1-0.8
		c-0.9,0.6-1.9,1-3.1,1.2c-2.4,0-3.2-1.5-2.8-3.6l0.4-1.9c0.5-2.8,2.2-3.6,4.2-4.4c1.5-0.6,2.8-1.3,3.1-2.6c0.1-0.6,0-1.2-0.6-1.2
		s-1.2,0.5-1.3,1.4l-0.1,1h-4l0.3-1.3c0.4-2.2,1.4-4.1,5.8-4.1c2.7,0,5.1,1,4.5,4.5l-1.9,11.7L28.3,45.4L28.3,45.4z M38.8,45.8
		c-4.4,0-5.1-2.2-4.7-4.6l0.3-1.3h3.8l-0.3,1.3c-0.3,0.8,0.3,1.4,0.9,1.7l0,0c0.8,0,1.3-0.6,1.3-1.3c0-0.8-0.4-1.3-2.3-3.2
		c-1.9-1.9-2.4-3.2-2.4-4.2c0-2.7,1.4-4.9,5.8-4.9s4.5,2.7,4.1,4.5l-0.1,1h-3.8l0.1-1c0.3-1.3-0.3-1.5-0.9-1.5
		c-0.5-0.1-0.9,0.3-1,0.8c0,0.1,0,0.3,0,0.4c0,0.9,0.6,1.3,1.9,2.6c2.6,2.6,2.9,3.6,2.9,5.1C44.5,43.6,42.6,45.8,38.8,45.8
		L38.8,45.8z M56.2,33.8l-0.1,1h-3.8l0.1-1c0.3-1.3-0.3-1.5-0.9-1.5c-0.5-0.1-0.9,0.3-1,0.8c0,0.1,0,0.3,0,0.4
		c0,0.9,0.6,1.3,1.9,2.6c2.6,2.6,2.9,3.6,2.9,5.1c0,2.6-1.8,4.9-5.6,4.9c-4.4,0-5.1-2.2-4.7-4.6l0.3-1.3H49l-0.3,1.3
		c-0.3,0.8,0.3,1.4,0.9,1.7l0,0c0.8,0,1.3-0.6,1.3-1.3c0-0.8-0.4-1.3-2.3-3.2s-2.4-3.5-2.4-4.5c0-2.7,1.4-4.9,5.8-4.9
		S56.4,31.9,56.2,33.8z M56.4,24.7H8.8c-0.1-0.6-0.1-1.4-0.1-2.1h49.2L56.4,24.7z M71.5,45.9c-4.5,0-4.7-3.3-4.4-5.9l0.9-5.9
		c0.5-3.1,2.2-4.7,6-4.7c2.9,0,5.1,1.3,4.5,5.3l-1,6.4C76.9,44.7,74.7,45.9,71.5,45.9L71.5,45.9z M83.6,36.3l-1.5,9.2h-4.4l2.6-15.6
		h4.4l-0.3,1.5c0.8-0.9,1.9-1.5,3.1-1.5h0.6l-0.8,4.2h-0.9c-1.4-0.3-2.7,0.6-2.9,2.1C83.6,36.2,83.6,36.3,83.6,36.3L83.6,36.3z
		 M95.5,32.9h-2.7l-1.3,7.2c-0.3,1.4,0,2.1,1,2.1H94l-0.4,3.3h-3.3c-3.1,0-3.5-2.1-3.1-4.7L89.6,26H94l-0.6,3.8H96L95.5,32.9z"/>
	<path class="st0" d="M61,42.6c0.6,0,0.8-0.6,0.9-1.5l1.2-6.7c0.1-0.9,0-1.5-0.6-1.5s-0.9,0.6-1,1.8L60.3,41
		C60.1,41.9,60.5,42.6,61,42.6"/>
	<path class="st0" d="M73.7,32.3c-0.6,0-1,0.6-1.2,1.7l-1.3,7.4c-0.1,0.9,0.3,1.5,0.8,1.5s0.9-0.6,1-1.5l1.3-7.6
		C74.5,32.9,74.4,32.3,73.7,32.3"/>
	<path class="st0" d="M27.6,39.9l-0.4,2.2c0,0.5,0,1.2,0.6,1.2s1.2-0.8,1.3-1.9l0.6-3.5C28.7,38.1,27.9,38.8,27.6,39.9"/>
</g>
</svg>
