<?xml version="1.0" encoding="utf-8"?>
<!-- Generator: Adobe Illustrator 23.0.4, SVG Export Plug-In . SVG Version: 6.00 Build 0)  -->
<svg version="1.1" id="Layer_1" xmlns="http://www.w3.org/2000/svg" xmlns:xlink="http://www.w3.org/1999/xlink" x="0px" y="0px"
	 viewBox="0 0 250 250" style="enable-background:new 0 0 250 250;" xml:space="preserve">
<style type="text/css">
	.st0{fill:#FFFFFF;}
</style>
<path class="st0" d="M239.89,125.52c0,62.65-50.98,113.55-113.74,113.56c-62.98,0-113.91-50.86-113.89-113.74
	C12.28,62.63,63.4,11.9,126.52,11.96C188.97,12.02,239.89,63.02,239.89,125.52z M237.44,125.78
	c0.14-61.29-49.56-111.34-110.76-111.51c-61.76-0.18-111.91,49.49-112.06,111c-0.15,61.34,49.77,111.42,111.18,111.52
	C187.35,236.89,237.29,187.23,237.44,125.78z"/>
<path class="st0" d="M226.5,125.45c0.05,55.31-44.95,100.37-100.25,100.39C70.64,225.87,25.59,180.9,25.64,125.42
	C25.68,70.1,70.68,25.22,126.1,25.22C181.47,25.22,226.45,70.11,226.5,125.45z M126.23,27.61c-54.04-0.14-97.98,43.49-98.19,97.5
	c-0.21,54.33,43.67,98.34,98.07,98.34c53.84,0.01,97.89-43.69,98.1-97.32C224.42,71.81,180.61,27.75,126.23,27.61z"/>
<path class="st0" d="M101.89,145.67c-4.64,4.95-10.27,6.72-16.77,5.96c-7.07-0.83-11.42-4.25-12.92-10.2
	c-1.7-6.73,0.56-13.56,5.88-17.36c5.54-3.96,11.99-4.94,18.53-4.74c3.79,0.12,4.38-1.3,4.08-4.55c-0.64-6.98-3.11-9.1-10.07-8.24
	c-3.89,0.48-7.49,1.82-10.71,3.98c-1.76,1.18-2.74,1.33-3.89-0.75c-2.84-5.13-3.92-3.9,1.99-7c5.54-2.9,11.46-4.26,17.73-3.97
	c9.23,0.43,13.96,5.02,14.11,14.23c0.11,6.6-0.36,13.21-0.36,19.82c0,4.49-0.44,8.94,3.03,12.94c1.53,1.76-1.83,3.62-2.87,5.48
	c-0.75,1.35-1.79,0.69-2.77,0.14C104.59,150.13,103.4,147.86,101.89,145.67z M100.3,132.58c0-1.68-0.04-3.35,0.01-5.03
	c0.04-1.36-0.54-1.94-1.9-1.97c-3.86-0.09-7.7,0.12-11.26,1.72c-4.88,2.2-6.86,8.91-4.24,13.94c2.09,4.01,7.5,4.97,12.31,2.24
	C99.52,141.03,101.05,137.36,100.3,132.58z"/>
<path class="st0" d="M164.1,106.43c2.19-2.41,3.91-4.62,6.39-5.87c1.38-0.69,2.85-1.33,4.35-1.62c5.13-0.99,5.66-0.21,4.15,4.71
	c-0.93,3-1.87,4.72-5.74,4.64c-5.23-0.11-8.94,4.77-8.99,10.66c-0.07,9.25-0.15,18.5,0.05,27.74c0.07,3.08-0.93,3.88-3.87,3.77
	c-5.49-0.19-5.5-0.03-5.5-5.61c0-9.73-0.01-19.45,0.01-29.18c0.01-4.21,0.08-8.42-1.25-12.48c-0.56-1.7,0.09-2.39,1.71-2.76
	C163.31,98.6,162.02,97.31,164.1,106.43z"/>
<path class="st0" d="M137.03,124.85c0,7.32-0.09,14.64,0.05,21.95c0.05,2.51-0.4,3.65-3.29,3.53c-7.47-0.31-6.2,0.89-6.24-6.33
	c-0.07-13.08,0.11-26.16-0.11-39.23c-0.06-3.34,0.9-4.59,4.19-4.97c5.43-0.63,5.4-0.82,5.4,4.53
	C137.03,111.17,137.03,118.01,137.03,124.85z"/>
<path class="st0" d="M132.39,91.57c-3.54,0.05-6.33-2.71-6.45-6.38c-0.13-3.83,2.62-6.84,6.3-6.9c3.71-0.06,6.7,2.83,6.76,6.54
	C139.05,88.42,136.02,91.51,132.39,91.57z"/>
</svg>
